<svg viewBox="-0.0879973398676891,-0.5501445877733789,0.1550552147150424,0.9510939945503941"><circle cx="0.04510985707935" cy="0.034935748166925684" r="0.004363323129985824" style="fill: black;"></circle><circle cx="0.04025094336722594" cy="0.001369614101323302" r="0.004363323129985824" style="fill: black;"></circle><circle cx="0.03466973943112268" cy="-0.03263267831626959" r="0.004363323129985824" style="fill: black;"></circle><circle cx="0.028557086145781306" cy="-0.06680825752429415" r="0.004363323129985824" style="fill: black;"></circle><circle cx="0.022113097598072663" cy="-0.10089916117917741" r="0.004363323129985824" style="fill: black;"></circle><circle cx="0.015541115597542277" cy="-0.13465430276504947" r="0.004363323129985824" style="fill: black;"></circle><circle cx="0.009041712495184633" cy="-0.16783120786369904" r="0.004363323129985824" style="fill: black;"></circle><circle cx="0.00280691068382569" cy="-0.2001975165560086" r="0.004363323129985824" style="fill: black;"></circle><circle cx="-0.0029852254899830786" cy="-0.231532254331193" r="0.004363323129985824" style="fill: black;"></circle><circle cx="-0.008175485745097966" cy="-0.26162687909683474" r="0.004363323129985824" style="fill: black;"></circle><circle cx="-0.012627776943693427" cy="-0.29028611635024654" r="0.004363323129985824" style="fill: black;"></circle><circle cx="-0.016232653155538707" cy="-0.31732859826163395" r="0.004363323129985824" style="fill: black;"></circle><circle cx="-0.018910034792035436" cy="-0.34258732533013164" r="0.004363323129985824" style="fill: black;"></circle><circle cx="-0.020611061798943862" cy="-0.36590997142322035" r="0.004363323129985824" style="fill: black;"></circle><circle cx="-0.02131904900744912" cy="-0.38715905443295856" r="0.004363323129985824" style="fill: black;"></circle><circle cx="-0.021049534578977985" cy="-0.4062119955230738" r="0.004363323129985824" style="fill: black;"></circle><circle cx="-0.019849434623628894" cy="-0.42296109005067273" r="0.004363323129985824" style="fill: black;"></circle><circle cx="-0.017795338168195698" cy="-0.4373134127784718" r="0.004363323129985824" style="fill: black;"></circle><circle cx="-0.01499099639448363" cy="-0.4491906790027753" r="0.004363323129985824" style="fill: black;"></circle><circle cx="-0.011564078205377996" cy="-0.45852908176118046" r="0.004363323129985824" style="fill: black;"></circle><circle cx="-0.007662280486279585" cy="-0.4652791234027732" r="0.004363323129985824" style="fill: black;"></circle><circle cx="-0.0034488957263636992" cy="-0.46940545754935226" r="0.004363323129985824" style="fill: black;"></circle><circle cx="0.0009020482157567489" cy="-0.4708867548941794" r="0.004363323129985824" style="fill: black;"></circle><circle cx="0.005210951619342101" cy="-0.46971560341752605" r="0.004363323129985824" style="fill: black;"></circle><circle cx="0.009297977754523113" cy="-0.46589845048838274" r="0.004363323129985824" style="fill: black;"></circle><circle cx="0.012988422383956168" cy="-0.45945559101218814" r="0.004363323129985824" style="fill: black;"></circle><circle cx="0.016117979132563513" cy="-0.45042120232100313" r="0.004363323129985824" style="fill: black;"></circle><circle cx="0.018537762648736827" cy="-0.43884342293538553" r="0.004363323129985824" style="fill: black;"></circle><circle cx="0.020118955059083947" cy="-0.424784468712398" r="0.004363323129985824" style="fill: black;"></circle><circle cx="0.020756947740574173" cy="-0.40832077629589125" r="0.004363323129985824" style="fill: black;"></circle><circle cx="0.020374859940405426" cy="-0.3895431602767995" r="0.004363323129985824" style="fill: black;"></circle><circle cx="0.01892632827032018" cy="-0.368556967136119" r="0.004363323129985824" style="fill: black;"></circle><circle cx="0.016397476545517337" cy="-0.3454822059757915" r="0.004363323129985824" style="fill: black;"></circle><circle cx="0.012807993724987202" cy="-0.3204536333469334" r="0.004363323129985824" style="fill: black;"></circle><circle cx="0.00821126866108167" cy="-0.2936207672741011" r="0.004363323129985824" style="fill: black;"></circle><circle cx="0.002693553713445929" cy="-0.26514780396747833" r="0.004363323129985824" style="fill: black;"></circle><circle cx="-0.0036278453434107705" cy="-0.23521340983403322" r="0.004363323129985824" style="fill: black;"></circle><circle cx="-0.010607328770977564" cy="-0.20401036136242123" r="0.004363323129985824" style="fill: black;"></circle><circle cx="-0.01807465946585203" cy="-0.17174500637508655" r="0.004363323129985824" style="fill: black;"></circle><circle cx="-0.025839436411930195" cy="-0.13863652210702554" r="0.004363323129985824" style="fill: black;"></circle><circle cx="-0.03369627721729143" cy="-0.10491594865231157" r="0.004363323129985824" style="fill: black;"></circle><circle cx="-0.04143057603892017" cy="-0.0708249805492242" r="0.004363323129985824" style="fill: black;"></circle><circle cx="-0.048824679820619894" cy="-0.0366145046431936" r="0.004363323129985824" style="fill: black;"></circle><circle cx="-0.05566430598618699" cy="-0.002542878811277849" r="0.004363323129985824" style="fill: black;"></circle><circle cx="-0.0617450095759533" cy="0.03112604646685735" r="0.004363323129985824" style="fill: black;"></circle><circle cx="-0.06687849826076907" cy="0.06412515353009035" r="0.004363323129985824" style="fill: black;"></circle><circle cx="-0.07089859055801018" cy="0.09618651108006065" r="0.004363323129985824" style="fill: black;"></circle><circle cx="-0.07366661656113803" cy="0.1270440280414638" r="0.004363323129985824" style="fill: black;"></circle><circle cx="-0.0750760719747689" cy="0.15643627111441588" r="0.004363323129985824" style="fill: black;"></circle><circle cx="-0.07505635530422099" cy="0.18410940108423696" r="0.004363323129985824" style="fill: black;"></circle><circle cx="-0.0735754444088534" cy="0.20982017555291377" r="0.004363323129985824" style="fill: black;"></circle><circle cx="-0.07064140163660033" cy="0.23333895966134516" r="0.004363323129985824" style="fill: black;"></circle><circle cx="-0.06630263537350269" cy="0.2544526819495395" r="0.004363323129985824" style="fill: black;"></circle><circle cx="-0.06064688866894237" cy="0.27296767006323325" r="0.004363323129985824" style="fill: black;"></circle><circle cx="-0.05379897093267849" cy="0.2887123007908119" r="0.004363323129985824" style="fill: black;"></circle><circle cx="-0.04591729461735154" cy="0.3015394010331818" r="0.004363323129985824" style="fill: black;"></circle><circle cx="-0.037189323252408854" cy="0.31132834078619454" r="0.004363323129985824" style="fill: black;"></circle><circle cx="-0.02782607813314157" cy="0.3179867659417642" r="0.004363323129985824" style="fill: black;"></circle><circle cx="-0.018055886464485145" cy="0.3214519274607814" r="0.004363323129985824" style="fill: black;"></circle><circle cx="-0.008117582131151995" cy="0.32169157389781566" r="0.004363323129985824" style="fill: black;"></circle><circle cx="0.0017466098166586301" cy="0.3187043859323641" r="0.004363323129985824" style="fill: black;"></circle><circle cx="0.011298263303725877" cy="0.31251994398533267" r="0.004363323129985824" style="fill: black;"></circle><circle cx="0.020309773521728067" cy="0.3031982326385063" r="0.004363323129985824" style="fill: black;"></circle><circle cx="0.028570977730191228" cy="0.2908286978921833" r="0.004363323129985824" style="fill: black;"></circle><circle cx="0.03589515880975806" cy="0.27552888478507515" r="0.004363323129985824" style="fill: black;"></circle><circle cx="0.04212424171628106" cy="0.2574426931131222" r="0.004363323129985824" style="fill: black;"></circle><circle cx="0.04713302551341742" cy="0.2367382975552106" r="0.004363323129985824" style="fill: black;"></circle><circle cx="0.05083233115908626" cy="0.21360578517826445" r="0.004363323129985824" style="fill: black;"></circle><circle cx="0.05317098588110571" cy="0.18825456789492728" r="0.004363323129985824" style="fill: black;"></circle><circle cx="0.05413660695443311" cy="0.16091062993549338" r="0.004363323129985824" style="fill: black;"></circle><circle cx="0.05375518920902243" cy="0.13181367082618456" r="0.004363323129985824" style="fill: black;"></circle><circle cx="0.05208954003136027" cy="0.10121420288142363" r="0.004363323129985824" style="fill: black;"></circle><circle cx="0.04923664158036304" cy="0.06937065903494105" r="0.004363323129985824" style="fill: black;"></circle><path d="M-0.08715574274767002 0.654935852634915 L-0.06975647374413736 0.6558361162394857 L-0.0523359562429561 0.6565366058098226 L-0.034899496702513445 0.657037107970017 L-0.017452406437296192 0.6573374702622624 L-1.2878587085651816e-14 0.6574376011932948 L0.01745240643727044 0.6573374702622626 L0.0348994967024877 0.6570371079700176 L0.05233595624293038 0.6565366058098235" stroke="black" stroke-width="0.0005" fill="none"></path></svg>
