<?xml version="1.0" standalone="no"?>
<!DOCTYPE svg PUBLIC "-//W3C//DTD SVG 20010904//EN"
 "http://www.w3.org/TR/2001/REC-SVG-20010904/DTD/svg10.dtd">
<svg version="1.0" xmlns="http://www.w3.org/2000/svg"
 width="700.000000pt" height="700.000000pt" viewBox="0 0 700.000000 700.000000"
 preserveAspectRatio="xMidYMid meet">
<metadata>
Created by potrace 1.11, written by Peter Selinger 2001-2013
</metadata>
<g transform="translate(0.000000,700.000000) scale(0.100000,-0.100000)"
fill="#000000" stroke="none">
<path d="M6262 6509 c-13 -5 -35 -11 -50 -14 -14 -2 -39 -14 -54 -25 -15 -11
-36 -20 -47 -20 -11 0 -35 -16 -54 -35 -19 -19 -43 -35 -54 -35 -22 0 -73 -45
-73 -65 0 -14 -22 -25 -50 -25 -25 0 -70 -56 -70 -86 0 -19 -5 -24 -27 -25
-16 -1 -31 -1 -35 0 -4 0 -21 -14 -39 -31 -28 -28 -31 -36 -26 -73 6 -41 6
-41 -24 -37 -97 14 -156 -101 -85 -167 62 -58 166 -16 168 68 1 16 -2 33 -6
39 -5 8 2 10 23 6 59 -12 124 36 124 91 0 18 6 22 29 23 40 1 77 27 90 62 5
16 13 29 16 29 29 -4 55 5 79 29 16 16 45 34 66 41 20 7 41 20 47 29 5 9 10
14 10 10 0 -4 12 -3 28 3 39 16 72 21 72 11 0 -17 -37 -109 -57 -141 -12 -18
-19 -39 -17 -45 3 -7 -6 -18 -20 -25 -27 -15 -46 -46 -49 -79 -1 -16 -11 -28
-32 -36 -42 -18 -57 -39 -58 -86 -2 -28 -6 -39 -15 -35 -7 3 -29 -2 -48 -10
-44 -18 -70 -73 -55 -115 9 -28 9 -28 -20 -20 -16 5 -32 9 -34 10 -14 2 -64
-32 -77 -52 -19 -30 -15 -94 8 -119 20 -22 69 -37 101 -31 41 8 73 50 73 96 0
23 -6 48 -12 56 -11 12 -10 12 4 1 24 -18 81 -16 112 4 25 17 49 75 40 98 -3
8 7 13 27 13 39 2 88 48 91 87 2 22 10 32 35 42 29 12 63 58 63 85 0 5 14 23
30 38 17 15 33 40 36 55 2 16 14 38 24 50 11 11 20 29 20 39 0 27 1 31 13 53
20 36 18 115 -5 167 -15 36 -32 55 -63 74 -46 27 -132 38 -173 23z"/>
<path d="M5429 5852 c-74 -66 -12 -186 87 -168 78 15 105 114 45 168 -42 38
-90 38 -132 0z"/>
<path d="M5313 5693 c-30 -6 -73 -59 -73 -89 0 -14 7 -38 15 -54 30 -58 94
-69 150 -26 28 22 35 34 35 61 0 49 -18 82 -55 100 -18 8 -37 14 -42 14 -4 -1
-18 -4 -30 -6z"/>
<path d="M5733 5573 c-12 -2 -33 -15 -46 -29 -41 -41 -42 -97 -1 -137 80 -80
211 13 159 114 -13 24 -73 64 -87 58 -2 -1 -13 -4 -25 -6z"/>
<path d="M5109 5459 c-46 -49 -36 -119 23 -153 41 -25 89 -14 123 26 81 96
-61 218 -146 127z"/>
<path d="M5524 5410 c-30 -12 -54 -54 -54 -94 0 -51 35 -87 91 -93 40 -5 49
-2 75 25 79 79 -7 205 -112 162z"/>
<path d="M4980 5263 c-57 -21 -85 -94 -54 -141 25 -39 45 -51 81 -52 65 0 110
45 105 107 -5 61 -75 107 -132 86z"/>
<path d="M5313 5243 c-59 -28 -72 -111 -25 -156 70 -67 183 -10 168 85 -10 66
-81 101 -143 71z"/>
<path d="M5105 5081 c-71 -21 -98 -98 -55 -154 58 -74 180 -34 180 59 0 61
-67 112 -125 95z"/>
<path d="M4800 5012 c-19 -9 -41 -28 -48 -42 -15 -30 -9 -86 13 -110 9 -10 18
-35 20 -55 6 -67 66 -106 130 -85 64 21 87 96 47 150 -12 16 -22 44 -22 63 0
23 -8 41 -27 59 -38 35 -72 41 -113 20z"/>
<path d="M4597 4739 c-60 -39 -77 -64 -77 -109 0 -60 58 -106 118 -94 41 8
118 78 125 111 7 40 -16 89 -52 107 -43 23 -61 20 -114 -15z"/>
<path d="M4305 4541 c-37 -16 -60 -51 -60 -93 0 -33 6 -45 34 -70 29 -26 40
-29 73 -25 29 4 41 1 51 -12 33 -47 110 -55 150 -16 31 32 39 71 21 113 -15
37 -66 64 -108 56 -20 -3 -32 2 -49 21 -24 28 -79 40 -112 26z"/>
<path d="M4023 4355 c-90 -38 -85 -160 7 -185 62 -17 111 13 125 77 11 53 -21
96 -86 116 -8 3 -29 -1 -46 -8z"/>
<path d="M4273 4212 c-12 -2 -34 -17 -48 -34 -49 -58 -19 -140 57 -157 57 -13
118 31 118 85 0 75 -52 118 -127 106z"/>
<path d="M3713 4158 c-35 -17 -57 -72 -43 -112 13 -42 36 -62 77 -71 64 -13
128 50 116 115 -7 42 -51 80 -92 79 -20 0 -46 -5 -58 -11z"/>
<path d="M3422 3967 c-83 -46 -65 -169 27 -183 77 -12 134 52 112 126 -17 57
-87 86 -139 57z"/>
<path d="M4075 3916 c-52 -23 -73 -70 -54 -124 14 -40 49 -62 97 -62 103 0
132 146 37 186 -41 17 -42 17 -80 0z"/>
<path d="M3133 3775 c-80 -34 -85 -143 -8 -179 44 -21 89 -11 121 27 64 77
-20 191 -113 152z"/>
<path d="M3910 3632 c-74 -19 -106 -82 -75 -143 43 -81 176 -62 185 27 8 73
-49 133 -110 116z"/>
<path d="M2860 3582 c-58 -15 -90 -55 -84 -105 11 -100 144 -126 186 -36 9 19
14 46 11 61 -10 50 -69 92 -113 80z"/>
<path d="M2563 3382 c-47 -7 -79 -59 -73 -116 10 -96 149 -110 186 -19 32 74
-30 148 -113 135z"/>
<path d="M3684 3324 c-96 -47 -54 -184 56 -184 42 0 90 51 90 96 0 45 -23 80
-62 93 -40 14 -47 14 -84 -5z"/>
<path d="M2239 3152 c-54 -48 -39 -130 28 -158 113 -48 191 96 93 173 -28 23
-87 15 -121 -15z"/>
<path d="M3495 3036 c-28 -12 -45 -34 -59 -79 -3 -11 1 -34 9 -51 56 -118 231
-41 180 79 -21 52 -77 74 -130 51z"/>
<path d="M1987 2962 c-83 -51 -47 -182 50 -182 99 0 139 123 59 180 -28 20
-78 21 -109 2z"/>
<path d="M1763 2772 c-12 -2 -34 -17 -48 -33 -34 -42 -33 -89 3 -130 24 -26
35 -31 72 -31 57 1 91 33 96 91 4 66 -54 114 -123 103z"/>
<path d="M3283 2740 c-84 -55 -42 -184 57 -178 62 3 100 46 95 107 -6 70 -91
110 -152 71z"/>
<path d="M1486 2541 c-47 -49 -35 -125 25 -156 85 -44 175 43 133 130 -29 61
-111 75 -158 26z"/>
<path d="M3088 2464 c-53 -28 -65 -98 -24 -148 19 -24 32 -30 67 -32 48 -2 65
7 92 46 21 30 21 53 2 95 -25 52 -83 69 -137 39z"/>
<path d="M1278 2341 c-28 -25 -32 -35 -31 -72 5 -107 147 -133 188 -34 18 41
8 81 -27 110 -41 35 -88 33 -130 -4z"/>
<path d="M2874 2181 c-38 -23 -54 -64 -42 -108 22 -85 137 -99 182 -21 51 85
-55 182 -140 129z"/>
<path d="M1086 2144 c-76 -77 8 -202 107 -160 50 20 73 67 58 117 -21 71 -113
94 -165 43z"/>
<path d="M954 1970 c-74 -29 -82 -133 -15 -173 44 -26 84 -22 120 12 80 75 -3
202 -105 161z"/>
<path d="M2684 1936 c-16 -7 -37 -28 -45 -45 -46 -95 58 -183 147 -124 60 39
47 140 -20 168 -42 18 -43 18 -82 1z"/>
<path d="M785 1760 c-71 -74 3 -192 100 -160 81 27 93 145 18 179 -44 20 -87
14 -118 -19z"/>
<path d="M2455 1680 c-72 -75 -2 -190 98 -160 44 13 69 46 70 96 1 29 -5 42
-31 65 -45 40 -98 40 -137 -1z"/>
<path d="M677 1585 c-30 -31 -38 -74 -21 -115 12 -28 12 -30 -9 -30 -59 -1
-105 -87 -73 -139 3 -5 -10 -25 -29 -44 -37 -37 -46 -79 -25 -118 6 -10 7 -19
3 -19 -19 0 -41 -56 -35 -90 6 -42 6 -65 -1 -105 -2 -17 2 -43 11 -60 9 -16
15 -44 13 -61 -1 -21 6 -41 23 -61 13 -16 28 -42 32 -57 3 -15 17 -35 31 -44
13 -9 42 -34 63 -54 21 -21 46 -38 54 -38 28 0 31 -1 54 -23 16 -15 37 -22 70
-22 26 -1 58 -6 72 -12 30 -13 75 -9 95 7 10 8 19 8 34 1 31 -17 65 -13 104
13 19 13 38 22 40 20 3 -3 24 -5 48 -6 38 0 48 4 75 36 27 32 34 35 61 27 54
-16 123 32 123 85 0 21 2 21 37 9 77 -27 139 20 135 104 -5 96 -150 117 -188
26 -8 -20 -12 -40 -9 -45 9 -14 -7 -12 -28 4 -34 26 -124 -4 -134 -45 -4 -14
-11 -18 -24 -14 -51 17 -129 -5 -129 -36 0 -6 -5 -7 -11 -3 -24 14 -79 15
-107 0 -19 -10 -32 -12 -39 -5 -5 5 -32 11 -59 13 -88 7 -152 34 -178 75 -4 7
-17 20 -27 29 -10 9 -19 23 -19 32 0 9 -7 25 -15 37 -9 12 -13 32 -10 45 3 13
-1 34 -8 48 -11 21 -11 31 0 57 9 24 10 39 2 63 -9 25 -8 34 5 49 22 24 31 83
17 109 -9 17 -8 22 8 27 42 13 71 109 43 137 -8 8 2 17 31 32 99 50 71 186
-39 186 -31 0 -48 -6 -67 -25z"/>
<path d="M2272 1480 c-55 -34 -62 -108 -15 -155 41 -40 128 -30 151 19 20 42
22 58 8 91 -24 56 -91 77 -144 45z"/>
<path d="M2110 1301 c-40 -9 -58 -24 -73 -59 -17 -42 -12 -75 19 -106 48 -47
128 -36 158 23 21 39 20 59 -3 97 -21 35 -63 53 -101 45z"/>
<path d="M1892 1125 c-94 -41 -64 -184 39 -187 82 -3 130 86 84 156 -15 23
-27 29 -75 41 -8 2 -30 -2 -48 -10z"/>
<path d="M1679 962 c-24 -21 -31 -36 -31 -64 0 -60 28 -93 88 -104 54 -10 120
55 110 108 -3 13 -5 26 -5 29 -1 4 -13 18 -27 33 -37 37 -93 36 -135 -2z"/>
</g>
</svg>
